<svg xmlns="http://www.w3.org/2000/svg" viewBox="0 0 88 108" fill="none" aria-hidden="true">
  <defs>
    <linearGradient id="poseidon-gold" x1="14%" y1="0%" x2="86%" y2="100%">
      <stop offset="0%" stop-color="#fff6c0" />
      <stop offset="20%" stop-color="#ffe875" />
      <stop offset="48%" stop-color="#ffd700" />
      <stop offset="74%" stop-color="#d4af37" />
      <stop offset="100%" stop-color="#8f6f14" />
    </linearGradient>
    <linearGradient id="poseidon-gold-dark" x1="50%" y1="0%" x2="50%" y2="100%">
      <stop offset="0%" stop-color="#6f5618" />
      <stop offset="100%" stop-color="#241c06" />
    </linearGradient>
    <linearGradient id="poseidon-shine" x1="0%" y1="0%" x2="100%" y2="0%">
      <stop offset="0%" stop-color="#ffffff" stop-opacity="0" />
      <stop offset="42%" stop-color="#fffef2" stop-opacity="0.5" />
      <stop offset="100%" stop-color="#ffffff" stop-opacity="0" />
    </linearGradient>
    <filter id="poseidon-glow" x="-45%" y="-25%" width="190%" height="170%">
      <feDropShadow dx="0" dy="1" stdDeviation="1.2" flood-color="#fff0a8" flood-opacity="0.85" />
      <feDropShadow dx="0" dy="2" stdDeviation="2.5" flood-color="#ffb300" flood-opacity="0.55" />
    </filter>
  </defs>
  <g filter="url(#poseidon-glow)">
    <path
      fill="url(#poseidon-gold)"
      d="M33.8 75.2 29.8 74.6C17.4 72.2 7.8 63.2 6.2 50.4 4.6 37.6 8.8 24.8 14.8 14.6L18.2 6.8 22.2 10.8C17 21.2 14.8 33.6 16.6 45.8 18.4 58 24.6 69 32.8 74.4Z"
    />
    <path
      fill="url(#poseidon-gold)"
      d="M54.2 75.2 58.2 74.6C70.6 72.2 80.2 63.2 81.8 50.4 83.4 37.6 79.2 24.8 73.2 14.6L69.8 6.8 65.8 10.8C71 21.2 73.2 33.6 71.4 45.8 69.6 58 63.4 69 55.2 74.4Z"
    />
    <path fill="url(#poseidon-gold)" d="M40.8 18.2h6.4l-1.4 57.2h-3.6L40.8 18.2Z" />
    <path fill="url(#poseidon-gold)" d="M44 1.2 49.8 12.4 44 17.8 38.2 12.4 44 1.2Z" />
    <rect x="19.5" y="73.8" width="49" height="5.8" rx="1.3" fill="url(#poseidon-gold)" />
    <rect x="7.5" y="74.8" width="10.5" height="3.8" rx="1.9" fill="url(#poseidon-gold)" />
    <rect x="70" y="74.8" width="10.5" height="3.8" rx="1.9" fill="url(#poseidon-gold)" />
    <path
      fill="url(#poseidon-gold-dark)"
      d="M35.8 79.8h16.4c1.3 0 2.4 1.1 2.4 2.4v10.8c0 1.3-1.1 2.4-2.4 2.4H35.8c-1.3 0-2.4-1.1-2.4-2.4V82.2c0-1.3 1.1-2.4 2.4-2.4Z"
    />
    <path fill="url(#poseidon-shine)" d="M42.8 2.8h2.4v71.8h-2.4V2.8Z" opacity="0.75" />
  </g>
</svg>
